<?xml version="1.0" encoding="UTF-8" standalone="no"?>
<svg
   xmlns:dc="http://purl.org/dc/elements/1.1/"
   xmlns:cc="http://creativecommons.org/ns#"
   xmlns:rdf="http://www.w3.org/1999/02/22-rdf-syntax-ns#"
   xmlns:svg="http://www.w3.org/2000/svg"
   xmlns="http://www.w3.org/2000/svg"
   xmlns:sodipodi="http://sodipodi.sourceforge.net/DTD/sodipodi-0.dtd"
   xmlns:inkscape="http://www.inkscape.org/namespaces/inkscape"
   viewBox="0 0 16 16"
   version="1.1"
   x="0px"
   y="0px"
   id="svg16"
   sodipodi:docname="noun_Close_1816905.svg"
   width="16"
   height="16"
   inkscape:version="0.92.3 (2405546, 2018-03-11)">
  <metadata
     id="metadata22">
    <rdf:RDF>
      <cc:Work
         rdf:about="">
        <dc:format>image/svg+xml</dc:format>
        <dc:type
           rdf:resource="http://purl.org/dc/dcmitype/StillImage" />
        <dc:title>Close 948</dc:title>
      </cc:Work>
    </rdf:RDF>
  </metadata>
  <defs
     id="defs20" />
  <sodipodi:namedview
     pagecolor="#ffffff"
     bordercolor="#666666"
     borderopacity="1"
     objecttolerance="10"
     gridtolerance="10"
     guidetolerance="10"
     inkscape:pageopacity="0"
     inkscape:pageshadow="2"
     inkscape:window-width="1920"
     inkscape:window-height="996"
     id="namedview18"
     showgrid="false"
     inkscape:zoom="11.8"
     inkscape:cx="8"
     inkscape:cy="10"
     inkscape:window-x="0"
     inkscape:window-y="0"
     inkscape:window-maximized="1"
     inkscape:current-layer="svg16" />
  <title
     id="title2">Close 948</title>
  <desc
     id="desc4">Created with Sketch.</desc>
  <g
     id="g10"
     style="fill:none;fill-rule:evenodd;stroke:none;stroke-width:1"
     transform="translate(1.875e-4,3.125e-4)">
    <g
       id="g8"
       style="fill:#000000;fill-rule:nonzero">
      <path
         d="m 15.2925,13.4855 c 0.499,0.499 0.499,1.3075 0,1.8065 -0.2495,0.2495 -0.5765,0.3745 -0.9035,0.3745 -0.327,0 -0.6535,-0.1245 -0.9035,-0.3745 L 8,9.8065 2.5145,15.292 C 2.265,15.5415 1.938,15.666 1.611,15.666 c -0.327,0 -0.654,-0.1245 -0.9035,-0.374 -0.4995,-0.4995 -0.4995,-1.308 0,-1.807 L 6.193,7.9995 0.7075,2.514 c -0.499,-0.4995 -0.499,-1.3075 0,-1.8065 0.499,-0.499 1.3075,-0.4995 1.8065,0 L 7.9995,6.193 13.485,0.7075 c 0.499,-0.4995 1.308,-0.4995 1.807,0 0.499,0.4995 0.499,1.3075 0,1.8065 L 9.8065,7.9995 15.292,13.485 Z"
         id="path6"
         inkscape:connector-curvature="0" />
    </g>
  </g>
</svg>
