<svg xmlns="http://www.w3.org/2000/svg" xmlns:xlink="http://www.w3.org/1999/xlink" version="1.1" x="0px" y="0px" viewBox="0 0 50 62.5" enable-background="new 0 0 50 50" xml:space="preserve"><g><path fill-rule="evenodd" clip-rule="evenodd" d="M9.24,27.506h18.036v2.837H9.24V27.506z M32.909,25.201   c3.403,3.049,6.316-0.375,4.334-2.063c-1.239-1.055-3.637-0.555-5.509-2.151c-3.223-2.75-1.49-7.072,2.256-8.134v-2.024h2.839   v2.075c1.266,0.388,2.094,0.957,3.054,1.839l-1.973,2.029c-3.43-3.041-6.327,0.367-4.335,2.064   c1.238,1.056,3.638,0.556,5.509,2.152c3.146,2.68,1.603,7.051-2.256,8.133v2.024H33.99v-2.075c-1.273-0.392-2.082-0.944-3.054-1.84   L32.909,25.201z M9.24,19.568h18.036v2.837H9.24V19.568z M9.24,11.63h18.036v2.837H9.24V11.63z M4.196,0v50l6.208-8.239   l4.868,6.454l4.863-6.453l4.863,6.453l4.867-6.454l4.864,6.455l4.865-6.454l6.209,8.237V0H4.196z"/></g><text x="0" y="65" fill="#000000" font-size="5px" font-weight="bold" font-family="'Helvetica Neue', Helvetica, Arial-Unicode, Arial, Sans-serif">Created by Georgiana Ionescu</text><text x="0" y="70" fill="#000000" font-size="5px" font-weight="bold" font-family="'Helvetica Neue', Helvetica, Arial-Unicode, Arial, Sans-serif">from the Noun Project</text></svg>