<?xml version="1.0" ?>
<!DOCTYPE svg  PUBLIC '-//W3C//DTD SVG 1.1//EN'  'http://www.w3.org/Graphics/SVG/1.1/DTD/svg11.dtd'>
<svg enable-background="new 0 0 128 128" id="Слой_1" version="1.1" viewBox="0 0 128 128" xml:space="preserve" xmlns="http://www.w3.org/2000/svg" xmlns:xlink="http://www.w3.org/1999/xlink">
  <g>
    <g>
      <g>
        <path d="M79,25.5H49c-0.8,0-1.5-0.7-1.5-1.5s0.7-1.5,1.5-1.5h30c0.8,0,1.5,0.7,1.5,1.5S79.8,25.5,79,25.5z" fill="#4A374F"/>
      </g>
      <g>
        <path d="M89,35.5H39c-0.8,0-1.5-0.7-1.5-1.5s0.7-1.5,1.5-1.5h50c0.8,0,1.5,0.7,1.5,1.5S89.8,35.5,89,35.5z" fill="#4A374F"/>
      </g>
      <g>
        <path d="M89,45.5H39c-0.8,0-1.5-0.7-1.5-1.5s0.7-1.5,1.5-1.5h50c0.8,0,1.5,0.7,1.5,1.5S89.8,45.5,89,45.5z" fill="#4A374F"/>
      </g>
      <g>
        <path d="M89,55.5H39c-0.8,0-1.5-0.7-1.5-1.5s0.7-1.5,1.5-1.5h50c0.8,0,1.5,0.7,1.5,1.5S89.8,55.5,89,55.5z" fill="#4A374F"/>
      </g>
      <g>
        <path d="M23.8,122.5h-2.2c-0.3,0-0.6,0-0.9-0.1c-0.1,0-0.2,0-0.2,0c-0.2,0-0.4-0.1-0.6-0.1c-0.1,0-0.2,0-0.2-0.1     c-0.3-0.1-0.5-0.2-0.8-0.3c0,0,0,0,0,0c-0.2-0.1-0.5-0.2-0.7-0.4c0,0,0,0-0.1,0l41.3-37.8c1.3-1.2,3-1.8,4.7-1.8s3.4,0.7,4.7,1.8     l26,23.9l2.1-2.1L75.5,85.8L113.4,51v38.6c0.9-0.4,1.9-0.6,3-0.6V47.6c0-0.2,0-0.3-0.1-0.5c0,0,0-0.1,0-0.1     c-0.1-0.2-0.2-0.3-0.3-0.4c0,0,0,0,0,0c0,0,0,0,0,0c0,0,0,0-0.1-0.1l-5.4-5V14c0-6.3-5.2-11.5-11.5-11.5H29     c-6.3,0-11.5,5.2-11.5,11.5v27.6l-5.4,5c0,0,0,0-0.1,0.1c0,0,0,0,0,0c0,0,0,0,0,0c-0.1,0.1-0.2,0.3-0.3,0.4c0,0,0,0,0,0.1     c0,0.1-0.1,0.3-0.1,0.5v67.9c0,2.8,1.2,5.3,3,7.1c0,0,0,0,0,0c0.1,0.1,0.2,0.1,0.2,0.2c0.1,0.1,0.3,0.3,0.4,0.4     c0.1,0.1,0.2,0.2,0.4,0.3c0.1,0.1,0.3,0.2,0.4,0.3c0.1,0.1,0.3,0.2,0.4,0.3c0.1,0.1,0.2,0.1,0.4,0.2c0.2,0.1,0.3,0.2,0.5,0.2     c0.1,0.1,0.2,0.1,0.4,0.2c0.2,0.1,0.4,0.1,0.5,0.2c0.1,0,0.2,0.1,0.4,0.1c0.2,0.1,0.4,0.1,0.6,0.1c0.1,0,0.2,0.1,0.4,0.1     c0.2,0,0.4,0.1,0.6,0.1c0.1,0,0.2,0,0.3,0c0.3,0,0.7,0.1,1,0.1h66.2l1-3H23.8z M110.5,45.6l2.2,2l-2.2,2V45.6z M20.5,14     c0-4.7,3.8-8.5,8.5-8.5h70c4.7,0,8.5,3.8,8.5,8.5v38.4L73.3,83.8l-2.5-2.3c-1.8-1.7-4.2-2.6-6.7-2.6s-4.9,0.9-6.7,2.6l-2.5,2.3     L20.5,52.4V14z M17.5,45.6v4l-2.2-2L17.5,45.6z M15.8,119.5c-0.8-1.1-1.2-2.5-1.2-3.9V51l37.9,34.8L15.8,119.5z" fill="#4A374F"/>
      </g>
    </g>
  </g>
  <g>
    <path d="M119.3,93.7c-0.8-0.8-1.8-1.2-2.9-1.2c-1.1,0-2.1,0.4-2.9,1.2l-17.1,17.1c-0.1,0.1-0.2,0.3-0.3,0.4   c0,0,0,0.1,0,0.1c0,0,0,0,0,0.1l-4.1,12.2c-0.2,0.5,0,1.1,0.4,1.5c0.3,0.3,0.7,0.4,1.1,0.4c0.2,0,0.3,0,0.5-0.1l12.2-4.1   c0,0,0,0,0.1,0c0,0,0.1,0,0.1,0c0.2-0.1,0.3-0.2,0.4-0.3l17.1-17.1c1.6-1.6,1.6-4.1,0-5.7L119.3,93.7z M95.9,121.6l2.3-7l4.7,4.7   L95.9,121.6z M121.7,101.8l-16,16l-6-6l16-16c0.4-0.4,1.1-0.4,1.5,0l1.3,1.3l-8.8,8.8c-0.6,0.6-0.6,1.5,0,2.1   c0.3,0.3,0.7,0.4,1.1,0.4s0.8-0.1,1.1-0.4l8.8-8.8l1.1,1.1C122.1,100.7,122.1,101.4,121.7,101.8z" fill="#4A374F"/>
  </g>
</svg>
